<svg width="20" height="20" viewBox="0 0 20 20" fill="none" xmlns="http://www.w3.org/2000/svg">
<path d="M18.3845 9.9835V2.6355C18.3845 2.6355 18.3845 0.0654989 15.9795 2.0805M15.9795 2.0805C15.349 1.5975 14.3545 1.8365 13.7585 2.615L16.043 4.364C16.6385 3.586 16.6105 2.564 15.9795 2.0805ZM17.4755 17.3845L17.8985 18.691H16.595L16.348 17.931M2.795 17.3845L2.372 18.691H3.676L3.9225 17.931M0.75 9.9835V13.473C0.75 16.0315 2.748 18.125 5.19 18.125H14.81C17.252 18.125 19.25 16.0315 19.25 13.473V9.9835C19.25 9.9835 10.74 10.759 0.75 9.9835Z" stroke="black" stroke-linecap="round" stroke-linejoin="round"/>
</svg>
