<svg width="22" height="16" viewBox="0 0 22 16" fill="none" xmlns="http://www.w3.org/2000/svg">
<path d="M4.25 7.25C3.45507 7.25235 2.69338 7.56917 2.13128 8.13128C1.56917 8.69338 1.25235 9.45507 1.25 10.25V15.5V15.125C1.25087 14.8269 1.36967 14.5413 1.58046 14.3305C1.79125 14.1197 2.0769 14.0009 2.375 14H19.625C19.9231 14.0009 20.2087 14.1197 20.4195 14.3305C20.6303 14.5413 20.7491 14.8269 20.75 15.125V15.5V10.25C20.7477 9.45507 20.4308 8.69338 19.8687 8.13128C19.3066 7.56917 18.5449 7.25235 17.75 7.25M4.25 7.25H17.75M4.25 7.25V6.5C4.25111 6.10252 4.40951 5.72163 4.69057 5.44057C4.97163 5.15951 5.35252 5.00111 5.75 5H9.5C9.89748 5.00111 10.2784 5.15951 10.5594 5.44057C10.8405 5.72163 10.9989 6.10252 11 6.5M17.75 7.25V6.5C17.7489 6.10252 17.5905 5.72163 17.3094 5.44057C17.0284 5.15951 16.6475 5.00111 16.25 5H12.5C12.1025 5.00111 11.7216 5.15951 11.4406 5.44057C11.1595 5.72163 11.0011 6.10252 11 6.5M11 6.5V7.25M3.5 7.25V2.375C3.50148 1.87818 3.6995 1.40212 4.05081 1.05081C4.40212 0.699504 4.87818 0.501484 5.375 0.5H16.625C17.1218 0.501484 17.5979 0.699504 17.9492 1.05081C18.3005 1.40212 18.4985 1.87818 18.5 2.375V7.25H3.5Z" stroke="black" stroke-linecap="round" stroke-linejoin="round"/>
</svg>
