<svg width="17" height="18" viewBox="0 0 17 18" fill="none" xmlns="http://www.w3.org/2000/svg">
<path fill-rule="evenodd" clip-rule="evenodd" d="M10.7219 9.3335C10.5841 8.94347 10.3287 8.60579 9.99089 8.36696C9.65312 8.12814 9.2496 7.99993 8.83593 8V7.5H7.83593V8C7.30549 8 6.79679 8.21071 6.42171 8.58579C6.04664 8.96086 5.83593 9.46957 5.83593 10C5.83593 10.5304 6.04664 11.0391 6.42171 11.4142C6.79679 11.7893 7.30549 12 7.83593 12V14C7.40093 14 7.03043 13.7225 6.89243 13.3335C6.87195 13.2699 6.83892 13.211 6.79529 13.1603C6.75166 13.1097 6.69832 13.0683 6.63841 13.0386C6.5785 13.0089 6.51325 12.9916 6.44652 12.9875C6.37978 12.9835 6.31292 12.9929 6.24989 13.0152C6.18685 13.0375 6.12892 13.0721 6.07952 13.1172C6.03013 13.1622 5.99027 13.2167 5.9623 13.2775C5.93434 13.3382 5.91883 13.4039 5.91671 13.4707C5.91458 13.5376 5.92588 13.6041 5.94993 13.6665C6.08779 14.0565 6.34319 14.3942 6.68096 14.633C7.01874 14.8719 7.42225 15.0001 7.83593 15V15.5H8.83593V15C9.36636 15 9.87507 14.7893 10.2501 14.4142C10.6252 14.0391 10.8359 13.5304 10.8359 13C10.8359 12.4696 10.6252 11.9609 10.2501 11.5858C9.87507 11.2107 9.36636 11 8.83593 11V9C9.04273 8.99995 9.24447 9.06402 9.41335 9.18338C9.58224 9.30274 9.70996 9.47153 9.77893 9.6665C9.82309 9.79155 9.91511 9.89394 10.0348 9.95113C10.094 9.97946 10.1582 9.99583 10.2238 9.99933C10.2894 10.0028 10.355 9.99337 10.4169 9.9715C10.4788 9.94964 10.5359 9.91579 10.5847 9.87189C10.6335 9.828 10.6732 9.77491 10.7016 9.71567C10.7299 9.65642 10.7463 9.59218 10.7498 9.52661C10.7532 9.46104 10.7438 9.39542 10.7219 9.3335ZM7.83593 9C7.57071 9 7.31636 9.10536 7.12882 9.29289C6.94128 9.48043 6.83593 9.73478 6.83593 10C6.83593 10.2652 6.94128 10.5196 7.12882 10.7071C7.31636 10.8946 7.57071 11 7.83593 11V9ZM8.83593 14C9.10114 14 9.3555 13.8946 9.54303 13.7071C9.73057 13.5196 9.83593 13.2652 9.83593 13C9.83593 12.7348 9.73057 12.4804 9.54303 12.2929C9.3555 12.1054 9.10114 12 8.83593 12V14Z" fill="black"/>
<path fill-rule="evenodd" clip-rule="evenodd" d="M2.91243 1.3105C4.13943 0.71 6.15243 0 8.35543 0C10.5124 0 12.4724 0.6805 13.6929 1.273L13.7619 1.3065C14.1299 1.4885 14.4269 1.6605 14.6359 1.8L12.7889 4.5C17.0469 8.853 20.3359 17.9985 8.35543 17.9985C-3.62507 17.9985 -0.424572 9.019 3.87043 4.5L2.03543 1.8C2.17693 1.7075 2.35643 1.6 2.57043 1.486C2.67643 1.429 2.79043 1.37017 2.91243 1.3105ZM11.6019 4.4645L13.0804 2.303C11.7054 2.402 10.0694 2.725 8.49443 3.181C7.36943 3.506 6.11943 3.4565 4.96193 3.243C4.67023 3.18899 4.38055 3.12462 4.09343 3.05L5.05343 4.4635C7.11093 5.196 9.54393 5.196 11.6019 4.4645ZM4.47593 5.315C6.88343 6.245 9.77693 6.245 12.1844 5.314C13.1891 6.37356 14.0297 7.57737 14.6784 8.8855C15.3544 10.2645 15.7224 11.643 15.6624 12.831C15.6044 13.9775 15.1534 14.957 14.1234 15.685C13.0499 16.4435 11.2444 16.9985 8.35493 16.9985C5.46243 16.9985 3.64843 16.453 2.56493 15.703C1.52743 14.9845 1.07193 14.018 1.00743 12.887C0.939928 11.712 1.29993 10.3405 1.97343 8.952C2.61593 7.628 3.51243 6.3535 4.47593 5.315ZM3.90093 1.958C4.30093 2.077 4.71893 2.1805 5.14293 2.259C6.21793 2.457 7.29593 2.486 8.21593 2.2195C9.288 1.90705 10.3784 1.66141 11.4809 1.484C10.5609 1.207 9.48493 1 8.35493 1C6.63243 1 5.02593 1.4805 3.90093 1.958Z" fill="black"/>
</svg>
