<svg width="18" height="18" viewBox="0 0 18 18" fill="none" xmlns="http://www.w3.org/2000/svg">
<path d="M9 17.16C4.488 17.16 0.839996 13.512 0.839996 9C0.839996 4.488 4.488 0.839996 9 0.839996C13.512 0.839996 17.16 4.488 17.16 9C17.16 13.512 13.512 17.16 9 17.16ZM9 1.8C5.016 1.8 1.8 5.016 1.8 9C1.8 12.984 5.016 16.2 9 16.2C12.984 16.2 16.2 12.984 16.2 9C16.2 5.016 12.984 1.8 9 1.8Z" fill="black"/>
<path d="M12.984 9.816L9 5.832L5.016 9.816L4.344 9.144L9 4.488L13.656 9.144L12.984 9.816Z" fill="black"/>
<path d="M8.52 5.16H9.48V13.32H8.52V5.16Z" fill="black"/>
</svg>
